HIERARCHY
ROOT Hips
{
	OFFSET 177.014694 92.208603 81.662811
	CHANNELS 6 Xposition Yposition Zposition Zrotation Yrotation Xrotation 
	JOINT LeftUpLeg
	{
		OFFSET 0.103459 1.857826 10.548510
		CHANNELS 3 Zrotation Yrotation Xrotation
		JOINT LeftLeg
		{
			OFFSET 43.500000 -0.000023 0.000004
			CHANNELS 3 Zrotation Yrotation Xrotation
			JOINT LeftFoot
			{
				OFFSET 42.372200 0.000015 0.000002
				CHANNELS 3 Zrotation Yrotation Xrotation
				JOINT LeftToe
				{
					OFFSET 17.299997 -0.000001 -0.000010
					CHANNELS 3 Zrotation Yrotation Xrotation
					End Site
					{
						OFFSET 0.000000 0.000000 0.000000
					}
				}
			}
		}
	}
	JOINT RightUpLeg
	{
		OFFSET 0.103462 1.857828 -10.548512
		CHANNELS 3 Zrotation Yrotation Xrotation
		JOINT RightLeg
		{
			OFFSET 43.500046 -0.000019 0.000004
			CHANNELS 3 Zrotation Yrotation Xrotation
			JOINT RightFoot
			{
				OFFSET 42.372265 -0.000008 0.000019
				CHANNELS 3 Zrotation Yrotation Xrotation
				JOINT RightToe
				{
					OFFSET 17.299994 -0.000005 -0.000002
					CHANNELS 3 Zrotation Yrotation Xrotation
					End Site
					{
						OFFSET 0.000000 0.000000 0.000000
					}
				}
			}
		}
	}
	JOINT Spine
	{
		OFFSET 6.901970 -2.603727 0.000005
		CHANNELS 3 Zrotation Yrotation Xrotation
		JOINT Spine1
		{
			OFFSET 12.588102 0.000001 -0.000000
			CHANNELS 3 Zrotation Yrotation Xrotation
			JOINT Spine2
			{
				OFFSET 12.343201 -0.000005 -0.000002
				CHANNELS 3 Zrotation Yrotation Xrotation
				JOINT Neck
				{
					OFFSET 25.832886 -0.000002 0.000004
					CHANNELS 3 Zrotation Yrotation Xrotation
					JOINT Head
					{
						OFFSET 11.766621 0.000007 -0.000003
						CHANNELS 3 Zrotation Yrotation Xrotation
						End Site
						{
							OFFSET 0.000000 0.000000 0.000000
						}
					}
				}
				JOINT LeftShoulder
				{
					OFFSET 19.745899 -1.480368 6.000106
					CHANNELS 3 Zrotation Yrotation Xrotation
					JOINT LeftArm
					{
						OFFSET 11.284125 -0.000008 -0.000024
						CHANNELS 3 Zrotation Yrotation Xrotation
						JOINT LeftForeArm
						{
							OFFSET 33.000053 0.000001 0.000031
							CHANNELS 3 Zrotation Yrotation Xrotation
							JOINT LeftHand
							{
								OFFSET 25.200008 0.000018 0.000007
								CHANNELS 3 Zrotation Yrotation Xrotation
								End Site
								{
									OFFSET 0.000000 0.000000 0.000000
								}
							}
						}
					}
				}
				JOINT RightShoulder
				{
					OFFSET 19.746098 -1.480373 -6.000077
					CHANNELS 3 Zrotation Yrotation Xrotation
					JOINT RightArm
					{
						OFFSET 11.284138 -0.000021 -0.000000
						CHANNELS 3 Zrotation Yrotation Xrotation
						JOINT RightForeArm
						{
							OFFSET 33.000088 0.000017 0.000003
							CHANNELS 3 Zrotation Yrotation Xrotation
							JOINT RightHand
							{
								OFFSET 25.199770 0.000141 0.000423
								CHANNELS 3 Zrotation Yrotation Xrotation
								End Site
								{
									OFFSET 0.000000 0.000000 0.000000
								}
							}
						}
					}
				}
			}
		}
	}
}
MOTION
Frames: 15
Frame Time: 0.033333
235.647202 68.988274 168.957199 91.578705 2.659663 -33.770815 116.432773 -18.300100 -173.658489 -56.265708 -2.548477 5.233212 65.826740 -8.990722 -13.193641 21.454551 0.003088 -0.000000 171.293809 25.053298 -175.828740 -78.599754 -3.363237 -2.938517 103.449697 3.186728 23.145020 21.454558 -0.003110 -0.000018 13.252474 -2.940843 2.461687 16.393963 -6.200799 4.486837 16.074908 -6.173483 4.524245 20.689435 -3.585900 3.327583 -44.556203 -1.299332 4.603985 -2.031130 -66.710867 179.864904 -54.223106 -28.525657 -6.367556 -12.121660 -17.841921 1.181495 4.494673 -48.497495 -4.463121 41.718007 64.269211 -137.776991 -62.219219 30.016793 16.674949 -27.208878 24.265111 -1.793378 12.672593 27.208593 3.056784 
235.892303 69.258476 168.565308 90.754540 1.613706 -35.487791 118.333055 -20.026091 -173.259646 -55.754342 -2.715126 4.906115 65.719158 -9.041501 -13.898539 21.454555 0.003098 0.000002 169.881640 26.397293 -177.233929 -80.293737 -3.755540 -4.019134 103.652895 3.870719 22.320233 21.454562 -0.003108 -0.000020 13.204777 -2.847900 2.430287 16.302004 -6.009822 4.439706 15.983058 -5.982788 4.475955 20.885742 -2.715893 3.970788 -43.759311 -2.425310 6.031270 -0.001268 -67.599011 177.921674 -53.177636 -27.499680 -5.854895 -11.510400 -17.341381 1.146857 2.907280 -48.114246 -2.948294 43.557015 64.078219 -136.010021 -62.857582 29.386940 15.365257 -28.615986 24.439797 -1.831474 11.981224 26.808506 2.291642 
236.272003 69.404877 168.173599 89.546048 0.534501 -37.327517 120.697174 -21.737705 -173.252898 -55.142095 -2.760652 4.587070 65.546846 -9.144429 -14.693781 21.454555 0.003092 -0.000000 168.731887 27.774001 -178.064876 -80.539863 -4.176542 -1.662927 104.933289 1.978560 20.996555 21.454557 -0.003108 -0.000019 13.155980 -2.735863 2.362730 16.210107 -5.775798 4.322984 15.891244 -5.749472 4.357815 20.634263 -1.978049 4.691165 -41.961093 -3.725576 7.566193 1.884700 -68.414201 176.110103 -51.794991 -26.125781 -5.117524 -10.642931 -16.654139 1.099648 0.300139 -47.909443 -1.544172 44.703971 64.124097 -134.899064 -64.269273 29.394443 12.239534 -29.471341 24.601658 -1.858991 12.216757 26.455317 2.100911 
236.953705 69.420174 167.678406 88.178384 -0.559388 -39.308592 123.486255 -23.666305 -173.649514 -54.079805 -2.714601 4.358912 65.441436 -9.393165 -15.698331 21.454550 0.003096 -0.000000 167.358814 28.891601 -178.970723 -79.615800 -4.146380 -0.298050 106.453020 0.748361 19.504975 21.454551 -0.003103 -0.000022 13.088325 -2.606657 2.344248 16.078177 -5.513850 4.307264 15.759466 -5.487626 4.340505 20.813234 -1.042901 5.521279 -40.041199 -5.637580 9.532642 4.661392 -69.072603 173.429281 -49.750227 -24.485723 -4.044558 -10.021971 -15.971451 1.054293 -2.537791 -47.610810 1.854273 45.909065 64.354213 -133.723998 -66.088098 29.428611 10.435493 -30.914717 24.351113 -1.872953 12.772579 25.069569 1.642585 
238.075302 69.681107 167.122101 86.546515 -1.320548 -41.226602 127.657984 -25.211003 -174.848294 -50.941299 -2.446079 4.007529 65.052170 -9.797855 -17.191610 21.454555 0.003095 0.000001 165.944446 29.590698 -179.030214 -77.156617 -3.493015 -1.522394 106.570308 1.532557 19.627355 21.454553 -0.003106 -0.000019 12.996346 -2.538229 2.361758 15.894617 -5.376925 4.356015 15.576007 -5.350407 4.388422 22.336655 -1.470961 5.866562 -38.227957 -6.494068 10.329655 8.777536 -70.567711 169.450983 -48.185878 -23.080797 -2.671845 -9.577813 -15.399817 1.016801 -4.412958 -47.811471 4.082744 47.980949 64.474001 -131.713013 -68.114669 28.962164 8.840589 -31.812030 24.232231 -1.884776 13.215584 22.454433 2.303292 
239.787704 70.627541 166.510803 85.780776 -2.497512 -42.663510 132.814695 -27.069896 -175.675157 -44.616961 -2.514601 3.359171 63.397529 -10.221904 -18.689778 21.454551 0.003092 0.000000 166.529410 28.165704 -175.205936 -74.574539 -3.291834 0.681759 105.327596 0.296659 22.091386 21.454560 -0.003102 -0.000017 12.882042 -2.318719 2.497268 15.664614 -4.954334 4.660895 15.346364 -4.925982 4.690726 24.452533 -1.629802 5.945941 -35.963985 -7.368936 10.788911 11.663333 -72.281010 166.649103 -47.972254 -21.846848 -0.509006 -9.372198 -15.331359 1.011762 -5.995404 -47.903327 5.772075 50.034059 64.666298 -129.714991 -70.569118 27.961999 9.113844 -31.879696 23.496810 -1.838816 13.113903 21.879113 1.818633 
242.300003 72.145439 165.782196 86.115694 -3.333664 -43.894986 139.182508 -28.047803 -175.079947 -33.945388 -1.851568 1.334840 60.614965 -9.972055 -20.312902 21.454553 0.003089 -0.000000 167.719994 25.127311 -169.467471 -71.564898 -4.582840 4.035166 107.678404 -2.388101 21.892899 21.454560 -0.003109 -0.000017 12.607611 -2.164505 2.817550 15.105575 -4.678556 5.331828 14.787850 -4.646179 5.359929 27.520116 -1.245550 5.589846 -33.247028 -7.801894 10.439461 14.457835 -73.458807 163.921904 -48.184106 -20.646041 1.529336 -11.097580 -15.768112 1.046424 -5.193627 -48.922343 3.743773 53.788935 65.043290 -126.052002 -72.556451 26.835680 8.239197 -30.655538 22.769585 -1.765791 13.325772 22.048984 1.326151 
245.134903 73.615021 165.011597 86.602660 -3.221595 -45.153011 145.079502 -26.352600 -168.675893 -24.248319 -0.501819 -3.358680 62.011356 -3.511807 -14.020300 21.454553 0.003091 0.000001 167.806123 22.779405 -167.201747 -68.243036 -5.714912 3.154055 109.683003 -2.156311 22.250023 21.454555 -0.003110 -0.000016 12.239322 -2.186265 3.075952 14.356428 -4.737569 5.860832 14.038987 -4.702013 5.889261 30.184631 -1.323270 4.824232 -29.524155 -8.141748 9.501387 14.874093 -74.339219 163.505713 -48.919444 -19.502395 1.883862 -12.326459 -16.069490 1.071983 -6.104943 -50.507664 3.512625 56.152945 65.436709 -123.730981 -74.593671 25.608116 7.417667 -29.764298 22.249433 -1.714125 12.815682 21.916930 0.998349 
248.162506 74.747383 164.276398 87.400917 -3.264079 -45.449892 145.511907 -25.272701 -160.315837 -22.511153 -1.867687 -3.393860 67.534178 1.665817 -1.904877 21.454551 0.003089 0.000001 166.449347 20.163308 -168.397809 -67.706190 -4.186213 3.008782 109.395411 -2.046894 20.623886 21.454558 -0.003104 -0.000018 12.002237 -2.059426 3.053730 13.887755 -4.470760 5.841723 13.570430 -4.435331 5.868542 31.744291 -2.241002 3.881033 -25.919538 -8.115851 8.287053 15.449403 -74.983285 162.938671 -48.885344 -19.085487 1.439593 -11.791522 -15.884285 1.057332 -6.750193 -50.041634 4.092281 58.097056 65.561702 -121.831054 -76.314612 25.133749 5.778523 -30.064908 22.145432 -1.713575 12.358255 22.144447 0.467676 
251.512299 76.186302 163.837906 88.202324 -3.821205 -44.398405 140.172830 -24.281690 -162.479491 -31.582378 -4.029141 1.040966 69.738690 -2.045088 -3.768230 21.454553 0.003086 0.000003 164.844157 17.812698 -165.859915 -68.237264 -3.850485 3.641229 106.223805 -1.958786 18.116687 21.454557 -0.003110 -0.000018 12.223223 -1.761717 2.916349 14.346905 -3.871778 5.594160 14.029695 -3.837845 5.617371 31.924325 -2.729191 2.766008 -24.617702 -8.144183 7.032318 15.415778 -74.365904 162.974912 -47.999339 -18.978731 -1.937433 -11.623491 -16.015890 1.064659 -5.817512 -51.812647 2.082781 57.589006 66.026011 -122.295056 -77.352172 25.467177 5.019365 -30.968347 22.930335 -1.782681 11.765806 22.434567 0.058614 
254.582993 77.184311 163.814194 89.197933 -4.495597 -44.145691 135.184648 -23.131501 -172.164248 -46.396860 -2.870809 3.965869 72.855258 -8.351110 -17.363919 21.454553 0.003087 -0.000001 161.969535 17.165606 -163.660253 -70.360381 -2.997470 2.263505 101.306698 -0.451385 15.525585 21.454562 -0.003110 -0.000016 12.526196 -1.458647 2.975260 14.962988 -3.290211 5.738557 14.646079 -3.255426 5.758254 31.540666 -3.150272 2.172315 -24.496127 -7.667698 6.200854 13.966188 -73.211985 164.393706 -46.748038 -18.968470 -5.469433 -11.793718 -16.298010 1.083237 -3.090111 -53.228713 -0.902840 57.529058 66.643809 -122.312036 -78.441840 26.290544 6.134641 -31.566720 23.120334 -1.807728 12.383022 22.476950 0.991895 
258.097412 77.750893 163.777405 90.310250 -4.225152 -45.481413 133.402023 -22.217407 -178.382097 -53.936993 -1.221000 11.780592 75.863779 -11.505564 -10.666208 21.454555 0.003095 0.000001 157.982248 18.409100 -162.654945 -73.164884 -1.862964 -2.596662 98.665600 3.198690 15.732543 21.454557 -0.003106 -0.000015 12.560726 -1.314052 3.121296 15.033779 -3.022982 6.046810 14.717123 -2.986339 6.064881 31.946099 -4.669625 1.807694 -24.724233 -7.202375 5.835891 10.925710 -73.351799 167.354197 -46.166215 -18.710074 -8.458229 -12.110030 -16.492668 1.097197 -4.375217 -54.228403 -0.199768 58.573995 66.083515 -121.332040 -79.131580 25.909201 7.980941 -32.674672 23.438025 -1.852714 12.244060 22.601982 1.544835 
261.106598 77.404289 163.591202 90.437920 -4.068237 -47.218812 136.114756 -21.928406 -179.800905 -49.597842 0.419160 7.735559 78.024133 -8.279905 -10.091860 21.454553 0.003095 0.000001 156.085764 21.199707 -162.468890 -75.438251 -1.904840 -9.317858 98.732406 8.096119 18.505942 21.454555 -0.003113 -0.000016 12.575758 -1.248562 3.279791 15.062213 -2.913963 6.370504 14.745847 -2.875390 6.387901 32.261825 -5.067893 1.815279 -24.032511 -7.835003 6.142105 8.096145 -73.871412 170.109973 -46.045526 -18.141454 -11.535490 -12.659231 -16.478950 1.099637 -5.714654 -55.080664 0.796356 60.995980 65.108799 -119.040007 -78.478204 25.164282 8.316899 -34.943955 23.487924 -1.909004 10.799855 23.269877 -0.039213 
263.396515 76.674263 163.117706 90.908513 -5.157550 -48.533992 135.996839 -23.973295 -169.960078 -48.378404 -4.664992 4.584912 77.544415 -6.869380 -13.346150 21.454555 0.003083 -0.000000 157.075950 22.572800 -162.927196 -76.588373 -1.651546 -4.458196 97.888161 4.883423 18.565801 21.454557 -0.003109 -0.000021 12.569694 -0.979508 3.517293 15.057314 -2.409026 6.878092 14.741432 -2.367416 6.892437 32.290310 -4.872954 1.856678 -23.776049 -7.927862 6.181172 6.578434 -74.484811 171.591195 -46.172311 -17.377311 -14.615150 -13.557100 -16.618871 1.114297 -6.877826 -56.099117 1.894975 62.848033 64.612203 -117.271029 -77.544668 24.111451 6.995696 -37.158620 23.894795 -1.991008 9.870115 23.492738 -1.396104 
265.565613 75.456253 162.754395 90.045983 -5.362641 -49.064695 135.563996 -26.575107 -174.349321 -48.397190 -3.587383 6.944912 75.673134 -8.844214 -13.358052 21.454555 0.003097 0.000001 159.467036 25.663314 -164.048877 -75.954873 -2.616743 7.236241 97.021690 -3.392711 13.964482 21.454558 -0.003116 -0.000018 12.541130 -0.982631 3.618065 14.997598 -2.426606 7.079171 14.681842 -2.383782 7.093606 32.764213 -4.433751 1.739827 -24.075524 -8.380397 6.239173 8.998721 -74.826123 169.223701 -45.676228 -16.699232 -15.878482 -14.515050 -16.927236 1.140626 -8.008379 -57.379340 2.435347 65.642920 64.287291 -114.569948 -76.329379 23.266140 5.845888 -38.247721 23.792662 -2.012860 8.997706 23.982082 -2.016340 
